<?xml version="1.0" encoding="UTF-8"?><svg id="Layer_2" xmlns="http://www.w3.org/2000/svg" viewBox="0 0 1000 220.4917"><g id="Components"><g id="_637f373c-c955-46c9-946b-2034f2540462_7"><path d="M0,143.1514c0-44.01,33.8713-77.3054,78.4746-77.3054,44.8825,0,78.4746,33.2954,78.4746,77.3054,0,3.4901-.2967,7.2594-.5933,10.4354H26.6294c4.3452,26.071,25.1984,44.01,52.997,44.01,20.5566,0,38.5131-9.842,46.9068-24.6051h27.7985c-11.5871,28.3744-40.2407,47.5001-75.002,47.5001C33.8713,220.4917,0,187.1614,0,143.1514ZM26.926,131.2851h103.673c-4.3452-24.6051-25.1984-42.5791-52.1244-42.5791-26.3502,0-46.6276,17.3806-51.5486,42.5791Z" style="fill:#fff;"/><path d="M258.2778,143.1514c0-44.01,33.8713-77.3054,78.4746-77.3054,44.8825,0,78.4746,33.2954,78.4746,77.3054,0,3.4901-.2967,7.2594-.5933,10.4354h-129.7265c4.3452,26.071,25.1984,44.01,52.997,44.01,20.5566,0,38.5131-9.842,46.9068-24.6051h27.7985c-11.5871,28.3744-40.2407,47.5001-75.002,47.5001-45.4584,0-79.3297-33.3303-79.3297-77.3403ZM285.2039,131.2851h103.673c-4.3452-24.6051-25.1984-42.5791-52.1244-42.5791-26.3502,0-46.6276,17.3806-51.5486,42.5791Z" style="fill:#fff;"/><path d="M417.372,69.3361h28.3744l49.8035,117.8253,49.8035-117.8253h27.816l-64.8807,147.6656h-26.071l-64.8458-147.6656Z" style="fill:#fff;"/><path d="M576.2756,143.1514c0-44.01,31.5853-77.3054,73.8502-77.3054,24.6226,0,44.9,11.5871,57.3596,30.1195v-26.6294h24.8843v147.6656h-24.8843v-26.6294c-12.4596,18.5324-32.737,30.1195-57.3596,30.1195-42.265,0-73.8502-33.3303-73.8502-77.3403ZM707.4854,143.1514c0-30.3987-22.5809-53.2587-52.7003-53.2587-30.4161,0-52.997,22.8601-52.997,53.2587s22.5809,53.2936,52.997,53.2936c30.1195,0,52.7003-22.895,52.7003-53.2936Z" style="fill:#fff;"/><path d="M763.9877,173.5501V28.5021h24.8843v40.834h39.6823v22.5809h-39.6823v77.5846c0,15.0772,9.5628,24.64,25.1984,24.64h14.4839v22.8601h-17.9739c-29.8053,0-46.5927-15.9148-46.5927-43.4516Z" style="fill:#fff;"/><path d="M184.5131,173.5501V8.5039h24.8843v160.9977c0,15.0772,9.5628,24.64,25.1984,24.64h14.4839v22.8601h-17.9739c-29.8053,0-46.5927-15.9148-46.5927-43.4516Z" style="fill:#fff;"/><path d="M843.0508,143.1514c0-44.01,33.8887-77.3054,78.4572-77.3054,44.8825,0,78.4921,33.2954,78.4921,77.3054,0,3.4901-.3141,7.2594-.5933,10.4354h-129.7265c4.3626,26.071,25.1984,44.01,53.0144,44.01,20.5566,0,38.4957-9.842,46.9068-24.6051h27.7811c-11.5871,28.3744-40.2407,47.5001-75.002,47.5001-45.4409,0-79.3297-33.3303-79.3297-77.3403ZM869.9594,131.2851h103.6905c-4.3626-24.6051-25.1984-42.5791-52.1419-42.5791-26.3502,0-46.5927,17.3806-51.5486,42.5791Z" style="fill:#fff;"/><polygon points="495.2699 0 542.3796 47.1088 448.162 47.1088 495.2699 0" style="fill:#ec672c;"/></g></g></svg>